<svg id="icon" viewBox="0 0 271.62152099609375 93.45111846923828" version="1.1" xmlns="http://www.w3.org/2000/svg" x="0px" y="0px" style="enable-background:new 0 0 1400 980;" fill="currentColor" stroke="currentColor">














<path d="M 30.684568405151367 17.111085891723633 C 30.984567642211914 17.55775260925293 31.361234664916992 18.104419708251953 31.81456756591797 18.75108528137207 C 32.261234283447266 19.397750854492188 32.747901916503906 20.09775161743164 33.274566650390625 20.851085662841797 C 33.80123519897461 21.604419708251953 34.344566345214844 22.37108612060547 34.90456771850586 23.151084899902344 C 35.464569091796875 23.93775177001953 36.00456619262695 24.694419860839844 36.524566650390625 25.421085357666016 C 37.0445671081543 26.147750854492188 37.52123260498047 26.817752838134766 37.954566955566406 27.43108558654785 C 38.387901306152344 28.037752151489258 38.741233825683594 28.531085968017578 39.01456832885742 28.91108512878418 C 39.15456771850586 28.704418182373047 39.41456604003906 28.331085205078125 39.7945671081543 27.791086196899414 C 40.16790008544922 27.24441909790039 40.60790252685547 26.611085891723633 41.114566802978516 25.89108657836914 C 41.614566802978516 25.171085357666016 42.161231994628906 24.39108657836914 42.75457000732422 23.55108642578125 C 43.347900390625 22.71108627319336 43.92790222167969 21.887752532958984 44.49456787109375 21.081085205078125 C 45.06123352050781 20.274417877197266 45.597900390625 19.521085739135742 46.10456848144531 18.82108497619629 C 46.60456848144531 18.12775230407715 47.01456832885742 17.55775260925293 47.33456802368164 17.111085891723633 L 47.33456802368164 35.011085510253906 L 45.614566802978516 35.011085510253906 L 45.614566802978516 22.79108428955078 C 45.614566802978516 22.651084899902344 45.62123489379883 22.50108528137207 45.63456726074219 22.34108543395996 C 45.64790344238281 22.18108558654785 45.65456771850586 22.044418334960938 45.65456771850586 21.93108558654785 C 45.387901306152344 22.317752838134766 45.06456756591797 22.777751922607422 44.6845703125 23.311084747314453 C 44.31123352050781 23.844417572021484 43.91456604003906 24.41775131225586 43.49456787109375 25.031085968017578 C 43.081233978271484 25.637752532958984 42.657901763916016 26.25775146484375 42.22456741333008 26.89108657836914 C 41.79123306274414 27.517751693725586 41.374568939208984 28.12775230407715 40.97456741333008 28.721084594726562 C 40.57456970214844 29.31441879272461 40.204566955566406 29.867752075195312 39.864566802978516 30.381084442138672 C 39.51790237426758 30.894418716430664 39.23456573486328 31.317752838134766 39.01456832885742 31.651084899902344 C 38.78790283203125 31.364418029785156 38.48123550415039 30.951086044311523 38.094566345214844 30.41108512878418 C 37.714569091796875 29.87775230407715 37.2945671081543 29.277751922607422 36.83456802368164 28.611085891723633 C 36.38123321533203 27.951086044311523 35.907901763916016 27.264419555664062 35.41456604003906 26.55108642578125 C 34.91456604003906 25.837753295898438 34.454566955566406 25.171085357666016 34.034568786621094 24.55108642578125 C 33.60790252685547 23.924419403076172 33.23123550415039 23.374420166015625 32.90456771850586 22.901084899902344 C 32.57789993286133 22.427753448486328 32.35790252685547 22.104419708251953 32.24456787109375 21.93108558654785 C 32.24456787109375 22.044418334960938 32.25456619262695 22.18108558654785 32.274566650390625 22.34108543395996 C 32.30123519897461 22.50108528137207 32.31456756591797 22.651084899902344 32.31456756591797 22.79108428955078 L 32.31456756591797 35.011085510253906 L 30.684568405151367 35.011085510253906 L 30.684568405151367 17.111085891723633 ZM 63.296363830566406 35.011085510253906 C 62.97636032104492 34.27775192260742 62.599693298339844 33.374420166015625 62.16636276245117 32.30108642578125 C 61.73969268798828 31.227752685546875 61.29302978515625 30.09108543395996 60.82636260986328 28.89108657836914 L 54.246360778808594 28.89108657836914 C 53.78636169433594 30.09108543395996 53.33969497680664 31.227752685546875 52.9063606262207 32.30108642578125 C 52.47303009033203 33.374420166015625 52.09636306762695 34.27775192260742 51.776363372802734 35.011085510253906 L 50.1463623046875 35.011085510253906 C 50.38636016845703 34.43775177001953 50.70635986328125 33.67441940307617 51.106361389160156 32.72108459472656 C 51.50636291503906 31.767751693725586 51.939693450927734 30.72441864013672 52.4063606262207 29.59108543395996 C 52.866363525390625 28.451086044311523 53.34636306762695 27.271085739135742 53.84636306762695 26.05108642578125 C 54.33969497680664 24.824419021606445 54.81969451904297 23.644418716430664 55.28636169433594 22.511085510253906 C 55.746360778808594 21.37108612060547 56.17302703857422 20.331085205078125 56.56636047363281 19.39108657836914 C 56.959693908691406 18.44441795349121 57.28302764892578 17.674419403076172 57.53636169433594 17.081085205078125 C 57.77635955810547 17.674419403076172 58.09636306762695 18.44441795349121 58.496360778808594 19.39108657836914 C 58.8963623046875 20.331085205078125 59.32969665527344 21.37108612060547 59.796363830566406 22.511085510253906 C 60.25636291503906 23.644418716430664 60.73969268798828 24.824419021606445 61.246360778808594 26.05108642578125 C 61.753028869628906 27.271085739135742 62.23636245727539 28.451086044311523 62.69636154174805 29.59108543395996 C 63.163028717041016 30.72441864013672 63.5930290222168 31.767751693725586 63.98636245727539 32.72108459472656 C 64.37303161621094 33.67441940307617 64.69636535644531 34.43775177001953 64.95635986328125 35.011085510253906 L 63.296363830566406 35.011085510253906 M 57.296363830566406 21.281085968017578 C 56.97636032104492 22.034420013427734 56.59636306762695 22.954418182373047 56.1563606262207 24.04108428955078 C 55.71636199951172 25.12775230407715 55.266361236572266 26.271085739135742 54.80636215209961 27.471084594726562 L 60.27635955810547 27.471084594726562 C 59.796363830566406 26.271085739135742 59.33969497680664 25.12775230407715 58.9063606262207 24.04108428955078 C 58.47303009033203 22.954418182373047 58.09636306762695 22.034420013427734 57.77635955810547 21.281085968017578 C 57.74302673339844 21.221084594726562 57.70302963256836 21.114418029785156 57.6563606262207 20.96108627319336 C 57.60969543457031 20.80775260925293 57.56969451904297 20.66775131225586 57.53636169433594 20.54108428955078 C 57.503028869628906 20.66775131225586 57.46302795410156 20.80775260925293 57.41636276245117 20.96108627319336 C 57.369693756103516 21.114418029785156 57.32969665527344 21.221084594726562 57.296363830566406 21.281085968017578 ZM 67.7402114868164 35.011085510253906 L 67.7402114868164 17.87108612060547 L 71.89021301269531 17.87108612060547 C 72.61021423339844 17.87108612060547 73.306884765625 17.971084594726562 73.98021697998047 18.171085357666016 C 74.65354919433594 18.37108612060547 75.25021362304688 18.68108558654785 75.77021789550781 19.101085662841797 C 76.29021453857422 19.514419555664062 76.70354461669922 20.034420013427734 77.01021575927734 20.66108512878418 C 77.32354736328125 21.281085968017578 77.48021697998047 22.024417877197266 77.48021697998047 22.89108657836914 C 77.48021697998047 23.851085662841797 77.2635498046875 24.764419555664062 76.83021545410156 25.631084442138672 C 76.40354919433594 26.491085052490234 75.69355010986328 27.1544189453125 74.70021057128906 27.62108612060547 C 74.84021759033203 27.861085891723633 75.03021240234375 28.18108558654785 75.27021789550781 28.581085205078125 C 75.51021575927734 28.9810848236084 75.7768783569336 29.41775131225586 76.0702133178711 29.89108657836914 C 76.35688018798828 30.357751846313477 76.6568832397461 30.84775161743164 76.97021484375 31.361085891723633 C 77.2768783569336 31.874418258666992 77.5768814086914 32.364418029785156 77.8702163696289 32.831085205078125 C 78.1568832397461 33.29108428955078 78.42021179199219 33.714420318603516 78.66021728515625 34.1010856628418 C 78.90021514892578 34.48108673095703 79.09021759033203 34.784420013427734 79.23021697998047 35.011085510253906 L 77.2402114868164 35.011085510253906 C 77.1135482788086 34.817752838134766 76.94688415527344 34.554420471191406 76.7402114868164 34.22108459472656 C 76.5335464477539 33.88108444213867 76.30021667480469 33.504417419433594 76.04021453857422 33.091087341308594 C 75.78688049316406 32.67775344848633 75.51688385009766 32.23775100708008 75.23021697998047 31.771085739135742 C 74.93688201904297 31.304418563842773 74.6568832397461 30.84775161743164 74.39021301269531 30.401084899902344 C 74.11688232421875 29.954418182373047 73.85688018798828 29.531085968017578 73.61021423339844 29.131084442138672 C 73.35688018798828 28.7310848236084 73.14354705810547 28.387752532958984 72.97021484375 28.101085662841797 C 72.81021118164062 28.134418487548828 72.64354705810547 28.151084899902344 72.47021484375 28.151084899902344 C 72.29021453857422 28.151084899902344 72.1135482788086 28.151084899902344 71.94021606445312 28.151084899902344 L 69.3702163696289 28.151084899902344 L 69.3702163696289 35.011085510253906 L 67.7402114868164 35.011085510253906 M 69.3702163696289 26.59108543395996 L 71.91021728515625 26.59108543395996 C 72.68354797363281 26.59108543395996 73.32354736328125 26.46108627319336 73.83021545410156 26.20108413696289 C 74.34355163574219 25.947751998901367 74.75021362304688 25.631084442138672 75.05021667480469 25.25108528137207 C 75.34355163574219 24.87775230407715 75.55021667480469 24.477752685546875 75.67021179199219 24.05108642578125 C 75.79021453857422 23.631084442138672 75.85021209716797 23.24441909790039 75.85021209716797 22.89108657836914 C 75.85021209716797 22.457752227783203 75.76688385009766 22.034420013427734 75.60021209716797 21.62108612060547 C 75.43354797363281 21.20108413696289 75.19021606445312 20.82775115966797 74.8702163696289 20.50108528137207 C 74.55021667480469 20.174419403076172 74.14021301269531 19.91108512878418 73.64021301269531 19.71108627319336 C 73.14688110351562 19.511085510253906 72.58021545410156 19.41108512878418 71.94021606445312 19.41108512878418 L 69.3702163696289 19.41108512878418 L 69.3702163696289 26.59108543395996 ZM 82.21207427978516 17.87108612060547 L 83.86207580566406 17.87108612060547 L 83.86207580566406 35.011085510253906 L 82.21207427978516 35.011085510253906 L 82.21207427978516 17.87108612060547 ZM 90.41401672363281 26.59108543395996 L 92.96401977539062 26.59108543395996 C 93.73068237304688 26.59108543395996 94.37068176269531 26.464418411254883 94.88401794433594 26.21108627319336 C 95.39735412597656 25.964418411254883 95.8006820678711 25.6544189453125 96.0940170288086 25.281085968017578 C 96.3873519897461 24.901084899902344 96.5940170288086 24.50108528137207 96.71401977539062 24.081085205078125 C 96.83401489257812 23.6544189453125 96.8940200805664 23.264419555664062 96.8940200805664 22.91108512878418 C 96.8940200805664 22.484418869018555 96.81068420410156 22.05775260925293 96.6440200805664 21.631084442138672 C 96.47734832763672 21.204418182373047 96.23401641845703 20.82775115966797 95.91401672363281 20.50108528137207 C 95.5940170288086 20.174419403076172 95.18734741210938 19.91108512878418 94.69401550292969 19.71108627319336 C 94.19401550292969 19.511085510253906 93.62401580810547 19.41108512878418 92.98401641845703 19.41108512878418 L 90.41401672363281 19.41108512878418 L 90.41401672363281 26.59108543395996 M 88.78401947021484 35.011085510253906 L 88.78401947021484 17.87108612060547 L 92.93402099609375 17.87108612060547 C 93.65402221679688 17.87108612060547 94.3506851196289 17.971084594726562 95.02401733398438 18.171085357666016 C 95.69734954833984 18.37108612060547 96.29402160644531 18.68108558654785 96.81401824951172 19.101085662841797 C 97.33401489257812 19.514419555664062 97.75068664550781 20.034420013427734 98.06401824951172 20.66108512878418 C 98.37734985351562 21.281085968017578 98.53401947021484 22.024417877197266 98.53401947021484 22.89108657836914 C 98.53401947021484 23.544418334960938 98.42735290527344 24.18775177001953 98.21401977539062 24.821086883544922 C 98.00735473632812 25.454418182373047 97.68402099609375 26.014419555664062 97.2440185546875 26.50108528137207 C 96.80401611328125 26.987751007080078 96.23401641845703 27.384418487548828 95.53401947021484 27.691085815429688 C 94.82735443115234 27.997753143310547 93.97734832763672 28.151084899902344 92.98401641845703 28.151084899902344 L 90.41401672363281 28.151084899902344 L 90.41401672363281 35.011085510253906 L 88.78401947021484 35.011085510253906 ZM 101.9878921508789 35.011085510253906 L 101.9878921508789 17.87108612060547 L 106.13789367675781 17.87108612060547 C 106.85789489746094 17.87108612060547 107.5545654296875 17.971084594726562 108.22789764404297 18.171085357666016 C 108.90122985839844 18.37108612060547 109.49789428710938 18.68108558654785 110.01789855957031 19.101085662841797 C 110.53789520263672 19.514419555664062 110.95122528076172 20.034420013427734 111.25789642333984 20.66108512878418 C 111.57122802734375 21.281085968017578 111.72789764404297 22.024417877197266 111.72789764404297 22.89108657836914 C 111.72789764404297 23.851085662841797 111.51123046875 24.764419555664062 111.07789611816406 25.631084442138672 C 110.65122985839844 26.491085052490234 109.94123077392578 27.1544189453125 108.94789123535156 27.62108612060547 C 109.08789825439453 27.861085891723633 109.27789306640625 28.18108558654785 109.51789855957031 28.581085205078125 C 109.75789642333984 28.9810848236084 110.0245590209961 29.41775131225586 110.3178939819336 29.89108657836914 C 110.60456085205078 30.357751846313477 110.9045639038086 30.84775161743164 111.2178955078125 31.361085891723633 C 111.5245590209961 31.874418258666992 111.8245620727539 32.364418029785156 112.1178970336914 32.831085205078125 C 112.4045639038086 33.29108428955078 112.66789245605469 33.714420318603516 112.90789794921875 34.1010856628418 C 113.14789581298828 34.48108673095703 113.33789825439453 34.784420013427734 113.47789764404297 35.011085510253906 L 111.4878921508789 35.011085510253906 C 111.3612289428711 34.817752838134766 111.19456481933594 34.554420471191406 110.9878921508789 34.22108459472656 C 110.7812271118164 33.88108444213867 110.54789733886719 33.504417419433594 110.28789520263672 33.091087341308594 C 110.03456115722656 32.67775344848633 109.76456451416016 32.23775100708008 109.47789764404297 31.771085739135742 C 109.18456268310547 31.304418563842773 108.9045639038086 30.84775161743164 108.63789367675781 30.401084899902344 C 108.36456298828125 29.954418182373047 108.10456085205078 29.531085968017578 107.85789489746094 29.131084442138672 C 107.60456085205078 28.7310848236084 107.39122772216797 28.387752532958984 107.2178955078125 28.101085662841797 C 107.05789184570312 28.134418487548828 106.89122772216797 28.151084899902344 106.7178955078125 28.151084899902344 C 106.53789520263672 28.151084899902344 106.3612289428711 28.151084899902344 106.18789672851562 28.151084899902344 L 103.6178970336914 28.151084899902344 L 103.6178970336914 35.011085510253906 L 101.9878921508789 35.011085510253906 M 103.6178970336914 26.59108543395996 L 106.15789794921875 26.59108543395996 C 106.93122863769531 26.59108543395996 107.57122802734375 26.46108627319336 108.07789611816406 26.20108413696289 C 108.59123229980469 25.947751998901367 108.99789428710938 25.631084442138672 109.29789733886719 25.25108528137207 C 109.59123229980469 24.87775230407715 109.79789733886719 24.477752685546875 109.91789245605469 24.05108642578125 C 110.03789520263672 23.631084442138672 110.09789276123047 23.24441909790039 110.09789276123047 22.89108657836914 C 110.09789276123047 22.457752227783203 110.01456451416016 22.034420013427734 109.84789276123047 21.62108612060547 C 109.68122863769531 21.20108413696289 109.43789672851562 20.82775115966797 109.1178970336914 20.50108528137207 C 108.79789733886719 20.174419403076172 108.38789367675781 19.91108512878418 107.88789367675781 19.71108627319336 C 107.39456176757812 19.511085510253906 106.82789611816406 19.41108512878418 106.18789672851562 19.41108512878418 L 103.6178970336914 19.41108512878418 L 103.6178970336914 26.59108543395996 ZM 114.94976043701172 26.471084594726562 C 114.94976043701172 25.271085739135742 115.17642974853516 24.137752532958984 115.6297607421875 23.071086883544922 C 116.08309173583984 22.004417419433594 116.70642852783203 21.071086883544922 117.49976348876953 20.271085739135742 C 118.2930908203125 19.471084594726562 119.22309112548828 18.84108543395996 120.28975677490234 18.381086349487305 C 121.34976196289062 17.914419174194336 122.4797592163086 17.68108558654785 123.67976379394531 17.68108558654785 C 124.8797607421875 17.68108558654785 126.01642608642578 17.914419174194336 127.08975982666016 18.381086349487305 C 128.1630859375 18.84108543395996 129.09642028808594 19.471084594726562 129.88975524902344 20.271085739135742 C 130.67642211914062 21.071086883544922 131.3031005859375 22.004417419433594 131.76976013183594 23.071086883544922 C 132.23641967773438 24.137752532958984 132.46975708007812 25.271085739135742 132.46975708007812 26.471084594726562 C 132.46975708007812 27.671085357666016 132.23641967773438 28.80108642578125 131.76976013183594 29.861085891723633 C 131.3031005859375 30.927751541137695 130.67642211914062 31.857751846313477 129.88975524902344 32.651084899902344 C 129.09642028808594 33.43775177001953 128.1630859375 34.06108474731445 127.08975982666016 34.52108383178711 C 126.01642608642578 34.97441864013672 124.8797607421875 35.20108413696289 123.67976379394531 35.20108413696289 C 122.4797592163086 35.20108413696289 121.34976196289062 34.97441864013672 120.28975677490234 34.52108383178711 C 119.22309112548828 34.06108474731445 118.2930908203125 33.43775177001953 117.49976348876953 32.651084899902344 C 116.70642852783203 31.857751846313477 116.08309173583984 30.927751541137695 115.6297607421875 29.861085891723633 C 115.17642974853516 28.80108642578125 114.94976043701172 27.671085357666016 114.94976043701172 26.471084594726562 M 116.57975769042969 26.471084594726562 C 116.57975769042969 27.457752227783203 116.76642608642578 28.387752532958984 117.13976287841797 29.261085510253906 C 117.51976013183594 30.134418487548828 118.0297622680664 30.894418716430664 118.66976165771484 31.541086196899414 C 119.30976104736328 32.18775177001953 120.05976104736328 32.70108413696289 120.91976165771484 33.081085205078125 C 121.78642272949219 33.45441818237305 122.70642852783203 33.64108657836914 123.67976379394531 33.64108657836914 C 124.65975952148438 33.64108657836914 125.58309173583984 33.45441818237305 126.44976043701172 33.081085205078125 C 127.32308959960938 32.70108413696289 128.08309936523438 32.18775177001953 128.72976684570312 31.541086196899414 C 129.38308715820312 30.894418716430664 129.89642333984375 30.134418487548828 130.26976013183594 29.261085510253906 C 130.64309692382812 28.387752532958984 130.8297576904297 27.457752227783203 130.8297576904297 26.471084594726562 C 130.8297576904297 25.477752685546875 130.64309692382812 24.544418334960938 130.26976013183594 23.671085357666016 C 129.89642333984375 22.797752380371094 129.38308715820312 22.034420013427734 128.72976684570312 21.381084442138672 C 128.08309936523438 20.721084594726562 127.32308959960938 20.204418182373047 126.44976043701172 19.831085205078125 C 125.58309173583984 19.457752227783203 124.65975952148438 19.271085739135742 123.67976379394531 19.271085739135742 C 122.6864242553711 19.271085739135742 121.76309204101562 19.457752227783203 120.90975952148438 19.831085205078125 C 120.05642700195312 20.204418182373047 119.30309295654297 20.721084594726562 118.6497573852539 21.381084442138672 C 118.00308990478516 22.034420013427734 117.49642944335938 22.797752380371094 117.1297607421875 23.671085357666016 C 116.76309204101562 24.544418334960938 116.57975769042969 25.477752685546875 116.57975769042969 26.471084594726562 Z" transform="matrix(2.5452189445495605, 0, 0, 2.5452189445495605, -69.82379913330078, -33.92000198364258)" /><path d="M 96.7118911743164 81.726806640625 L 94.24188995361328 87.67680358886719 L 93.01188659667969 87.67680358886719 L 100.24188995361328 70.39680480957031 L 100.9118881225586 70.39680480957031 L 108.1618881225586 87.67680358886719 L 106.86189270019531 87.67680358886719 L 104.39189147949219 81.726806640625 L 96.7118911743164 81.726806640625 M 100.50189208984375 72.31680297851562 C 100.48855590820312 72.33013916015625 100.45855712890625 72.42680358886719 100.4118881225586 72.60680389404297 C 100.18522644042969 73.29347229003906 99.96855926513672 73.87680053710938 99.76188659667969 74.35680389404297 L 97.12188720703125 80.73680114746094 L 103.98188781738281 80.73680114746094 L 101.34188842773438 74.37680053710938 C 100.78189086914062 73.16346740722656 100.50189208984375 72.476806640625 100.50189208984375 72.31680297851562 ZM 122.05537414550781 87.91680145263672 C 119.82870483398438 87.91680145263672 117.96537017822266 87.14013671875 116.46537017822266 85.58680725097656 C 114.95870208740234 84.0334701538086 114.20536804199219 82.13346862792969 114.20536804199219 79.88680267333984 C 114.20536804199219 77.64013671875 114.95870208740234 75.7401351928711 116.46537017822266 74.18680572509766 C 117.96537017822266 72.63346862792969 119.82870483398438 71.85680389404297 122.05537414550781 71.85680389404297 C 124.2753677368164 71.85680389404297 126.13536834716797 72.63346862792969 127.63536834716797 74.18680572509766 C 129.1287078857422 75.7401351928711 129.8753662109375 77.63680267333984 129.8753662109375 79.87680053710938 C 129.8753662109375 81.2034683227539 129.59536743164062 82.43680572509766 129.03536987304688 83.5768051147461 C 128.47537231445312 84.71013641357422 127.70870208740234 85.64347076416016 126.73536682128906 86.37680053710938 C 130.5420379638672 88.63680267333984 133.4687042236328 89.9968032836914 135.51536560058594 90.45680236816406 C 136.57537841796875 90.71680450439453 137.592041015625 90.8468017578125 138.56536865234375 90.8468017578125 C 139.5386962890625 90.8468017578125 140.592041015625 90.73346710205078 141.72537231445312 90.50680541992188 C 142.85203552246094 90.28680419921875 143.65536499023438 90.05680084228516 144.1353759765625 89.81680297851562 L 144.39537048339844 90.43680572509766 C 143.7886962890625 90.72347259521484 142.90536499023438 91.00680541992188 141.745361328125 91.28680419921875 C 140.5853729248047 91.56680297851562 139.4987030029297 91.70680236816406 138.48536682128906 91.70680236816406 C 137.46536254882812 91.70680236816406 136.3787078857422 91.5768051147461 135.22537231445312 91.31680297851562 C 134.07870483398438 91.05014038085938 132.8787078857422 90.63013458251953 131.6253662109375 90.05680084228516 C 130.3787078857422 89.476806640625 129.41537475585938 89.00680541992188 128.73536682128906 88.64680480957031 C 128.0553741455078 88.28680419921875 127.07537078857422 87.73014068603516 125.79537200927734 86.976806640625 C 124.64203643798828 87.60346984863281 123.39537048339844 87.91680145263672 122.05537414550781 87.91680145263672 M 122.04537200927734 72.8468017578125 C 122.04537200927734 72.8468017578125 121.5620346069336 72.8468017578125 120.59536743164062 72.8468017578125 C 119.62870025634766 72.8468017578125 118.51537322998047 73.52680206298828 117.25537109375 74.88680267333984 C 115.98870086669922 76.2468032836914 115.3553695678711 77.91346740722656 115.3553695678711 79.88680267333984 C 115.3553695678711 81.86680603027344 115.98870086669922 83.53013610839844 117.25537109375 84.87680053710938 C 118.51537322998047 86.23013305664062 120.11537170410156 86.90680694580078 122.05537414550781 86.90680694580078 C 123.0620346069336 86.90680694580078 123.97203826904297 86.71680450439453 124.78536987304688 86.33680725097656 C 122.97870635986328 85.11680603027344 121.57203674316406 84.50680541992188 120.56536865234375 84.50680541992188 C 119.99203491210938 84.50680541992188 119.46537017822266 84.6201400756836 118.98536682128906 84.8468017578125 L 118.6253662109375 84.17680358886719 C 119.16536712646484 83.82347106933594 119.77203369140625 83.64680480957031 120.44537353515625 83.64680480957031 C 121.11870574951172 83.64680480957031 121.7753677368164 83.76679992675781 122.41536712646484 84.00680541992188 C 123.05537414550781 84.2468032836914 123.59536743164062 84.49346923828125 124.03536987304688 84.7468032836914 C 124.47537231445312 85.00680541992188 125.04537200927734 85.36680603027344 125.74536895751953 85.8268051147461 C 126.67870330810547 85.20680236816406 127.41203308105469 84.3701400756836 127.94537353515625 83.31680297851562 C 128.47869873046875 82.27013397216797 128.745361328125 81.12347412109375 128.745361328125 79.87680053710938 C 128.745361328125 77.91014099121094 128.11203002929688 76.2468032836914 126.84536743164062 74.88680267333984 C 125.57203674316406 73.52680206298828 123.97203826904297 72.8468017578125 122.04537200927734 72.8468017578125 ZM 149.79656982421875 86.06680297851562 C 149.79656982421875 86.06680297851562 149.53323364257812 86.37680053710938 149.00656127929688 86.9968032836914 C 148.47323608398438 87.61013793945312 147.12657165527344 87.91680145263672 144.96656799316406 87.91680145263672 C 142.8065643310547 87.91680145263672 141.1999053955078 87.30014038085938 140.14657592773438 86.06680297851562 C 139.09323120117188 84.8334732055664 138.5665740966797 83.13013458251953 138.5665740966797 80.95680236816406 L 138.5665740966797 72.0968017578125 L 139.66656494140625 72.0968017578125 L 139.66656494140625 80.95680236816406 C 139.66656494140625 84.94347381591797 141.4332275390625 86.93680572509766 144.96656799316406 86.93680572509766 C 148.50656127929688 86.93680572509766 150.2765655517578 84.94347381591797 150.2765655517578 80.95680236816406 L 150.2765655517578 72.0968017578125 L 151.37657165527344 72.0968017578125 L 151.37657165527344 80.95680236816406 C 151.37657165527344 83.13013458251953 150.8498992919922 84.8334732055664 149.79656982421875 86.06680297851562 ZM 161.55386352539062 82.27680206298828 L 159.32386779785156 87.67680358886719 L 158.19386291503906 87.67680358886719 L 164.723876953125 72.00680541992188 L 165.36387634277344 72.00680541992188 L 171.94386291503906 87.67680358886719 L 170.723876953125 87.67680358886719 L 168.4638671875 82.27680206298828 L 161.55386352539062 82.27680206298828 M 164.98387145996094 73.77680206298828 C 164.74386596679688 74.4968032836914 164.52720642089844 75.0968017578125 164.3338623046875 75.5768051147461 L 161.93386840820312 81.33680725097656 L 168.0838623046875 81.33680725097656 L 165.70387268066406 75.60680389404297 C 165.3372039794922 74.70680236816406 165.09719848632812 74.0968017578125 164.98387145996094 73.77680206298828 ZM 190.9734649658203 86.90680694580078 C 189.77346801757812 87.58013916015625 188.10679626464844 87.91680145263672 185.9734649658203 87.91680145263672 C 183.83346557617188 87.91680145263672 181.95346069335938 87.15013885498047 180.33346557617188 85.61680603027344 C 178.70680236816406 84.0768051147461 177.89346313476562 82.16680145263672 177.89346313476562 79.88680267333984 C 177.89346313476562 77.60680389404297 178.60012817382812 75.70013427734375 180.01345825195312 74.16680145263672 C 181.4334716796875 72.62680053710938 183.26345825195312 71.85680389404297 185.5034637451172 71.85680389404297 C 187.3101348876953 71.85680389404297 189.07679748535156 72.13680267333984 190.803466796875 72.69680786132812 L 190.51345825195312 73.61680603027344 C 188.8534698486328 73.10346984863281 187.1334686279297 72.8468017578125 185.3534698486328 72.8468017578125 C 183.58013916015625 72.8468017578125 182.0901336669922 73.52346801757812 180.8834686279297 74.87680053710938 C 179.6768035888672 76.22347259521484 179.07347106933594 77.87680053710938 179.07347106933594 79.83680725097656 C 179.07347106933594 81.79680633544922 179.77346801757812 83.46680450439453 181.1734619140625 84.8468017578125 C 182.57347106933594 86.22013854980469 184.19346618652344 86.90680694580078 186.03346252441406 86.90680694580078 C 187.8734588623047 86.90680694580078 189.40013122558594 86.65013885498047 190.61346435546875 86.13680267333984 L 190.9734649658203 86.90680694580078 ZM 210.02891540527344 86.06680297851562 C 210.02891540527344 86.06680297851562 209.7655792236328 86.37680053710938 209.23892211914062 86.9968032836914 C 208.70558166503906 87.61013793945312 207.35891723632812 87.91680145263672 205.19891357421875 87.91680145263672 C 203.03890991210938 87.91680145263672 201.4322509765625 87.30014038085938 200.37892150878906 86.06680297851562 C 199.32557678222656 84.8334732055664 198.79891967773438 83.13013458251953 198.79891967773438 80.95680236816406 L 198.79891967773438 72.0968017578125 L 199.89891052246094 72.0968017578125 L 199.89891052246094 80.95680236816406 C 199.89891052246094 84.94347381591797 201.66558837890625 86.93680572509766 205.19891357421875 86.93680572509766 C 208.73892211914062 86.93680572509766 210.5089111328125 84.94347381591797 210.5089111328125 80.95680236816406 L 210.5089111328125 72.0968017578125 L 211.60891723632812 72.0968017578125 L 211.60891723632812 80.95680236816406 C 211.60891723632812 83.13013458251953 211.08224487304688 84.8334732055664 210.02891540527344 86.06680297851562 ZM 221.25621032714844 87.67680358886719 L 221.25621032714844 72.0968017578125 L 222.356201171875 72.0968017578125 L 222.356201171875 86.66680145263672 L 229.51620483398438 86.66680145263672 L 229.51620483398438 87.67680358886719 L 221.25621032714844 87.67680358886719 ZM 237.35414123535156 73.08680725097656 L 232.0741424560547 73.08680725097656 L 232.0741424560547 72.0968017578125 L 243.71414184570312 72.0968017578125 L 243.71414184570312 73.08680725097656 L 238.43414306640625 73.08680725097656 L 238.43414306640625 87.67680358886719 L 237.35414123535156 87.67680358886719 L 237.35414123535156 73.08680725097656 ZM 262.1018371582031 86.06680297851562 C 262.1018371582031 86.06680297851562 261.8385314941406 86.37680053710938 261.3118591308594 86.9968032836914 C 260.77850341796875 87.61013793945312 259.4318542480469 87.91680145263672 257.2718505859375 87.91680145263672 C 255.11184692382812 87.91680145263672 253.50518798828125 87.30014038085938 252.4518585205078 86.06680297851562 C 251.3985137939453 84.8334732055664 250.87185668945312 83.13013458251953 250.87185668945312 80.95680236816406 L 250.87185668945312 72.0968017578125 L 251.9718475341797 72.0968017578125 L 251.9718475341797 80.95680236816406 C 251.9718475341797 84.94347381591797 253.738525390625 86.93680572509766 257.2718505859375 86.93680572509766 C 260.8118591308594 86.93680572509766 262.58184814453125 84.94347381591797 262.58184814453125 80.95680236816406 L 262.58184814453125 72.0968017578125 L 263.6818542480469 72.0968017578125 L 263.6818542480469 80.95680236816406 C 263.6818542480469 83.13013458251953 263.1551818847656 84.8334732055664 262.1018371582031 86.06680297851562 ZM 273.32916259765625 87.67680358886719 L 273.32916259765625 72.17680358886719 C 274.7024841308594 72.06346893310547 275.8691711425781 72.00680541992188 276.82916259765625 72.00680541992188 C 278.302490234375 72.00680541992188 279.5191650390625 72.38680267333984 280.4791564941406 73.14680480957031 C 281.43914794921875 73.90679931640625 281.9191589355469 74.9901351928711 281.9191589355469 76.39680480957031 C 281.9191589355469 77.34346771240234 281.649169921875 78.21680450439453 281.1091613769531 79.01679992675781 C 280.5625 79.81680297851562 279.9458312988281 80.46347045898438 279.2591552734375 80.95680236816406 C 281.1591491699219 83.48346710205078 282.3358154296875 84.9968032836914 282.7891540527344 85.4968032836914 C 283.6958312988281 86.43680572509766 284.6858215332031 86.97013854980469 285.7591552734375 87.0968017578125 L 285.7391662597656 87.8468017578125 C 284.83917236328125 87.8268051147461 284.1091613769531 87.69347381591797 283.5491638183594 87.4468002319336 C 282.9891662597656 87.20013427734375 282.4358215332031 86.78013610839844 281.88916015625 86.18680572509766 C 281.3358154296875 85.59346771240234 280.12249755859375 84.00347137451172 278.2491455078125 81.41680145263672 C 276.955810546875 81.41680145263672 275.6824951171875 81.37680053710938 274.4291687011719 81.29680633544922 L 274.4291687011719 87.67680358886719 L 273.32916259765625 87.67680358886719 M 277.649169921875 80.4968032836914 C 278.27581787109375 80.4968032836914 278.94915771484375 80.0834732055664 279.6691589355469 79.25680541992188 C 280.38916015625 78.42346954345703 280.7491455078125 77.4534683227539 280.7491455078125 76.3468017578125 C 280.7491455078125 75.2468032836914 280.37249755859375 74.40679931640625 279.6191711425781 73.8268051147461 C 278.8658142089844 73.25347137451172 277.88916015625 72.96680450439453 276.68914794921875 72.96680450439453 C 276.0491638183594 72.96680450439453 275.29583740234375 72.9968032836914 274.4291687011719 73.05680084228516 L 274.4291687011719 80.37680053710938 C 275.5824890136719 80.45680236816406 276.65582275390625 80.4968032836914 277.649169921875 80.4968032836914 ZM 291.9507141113281 87.67680358886719 L 291.9507141113281 72.0968017578125 L 299.220703125 72.0968017578125 L 299.220703125 73.05680084228516 L 293.05072021484375 73.05680084228516 L 293.05072021484375 78.726806640625 L 298.6206970214844 78.726806640625 L 298.6206970214844 79.65679931640625 L 293.05072021484375 79.65679931640625 L 293.05072021484375 86.66680145263672 L 299.4607238769531 86.66680145263672 L 299.4607238769531 87.67680358886719 L 291.9507141113281 87.67680358886719 Z" transform="matrix(1.240510106086731, 0, 0, 1.240510106086731, -109.9838638305664, -27.47630500793457)" /></svg>