<?xml version="1.0" encoding="utf-8"?>
<svg id="master-artboard" viewBox="0 0 544.8392944335938 131.7161865234375" version="1.1" xmlns="http://www.w3.org/2000/svg" x="0px" y="0px" style="enable-background:new 0 0 649 485;" width="544.8392944335938px" height="131.7161865234375px"><rect id="ee-background" x="0" y="0" width="544.8392944335938" height="131.7161865234375" style="fill: white; fill-opacity: 0; pointer-events: none;"/><defs><style id="ee-google-fonts">@import url(https://fonts.googleapis.com/css?family=Josefin+Sans:100,100italic,300,300italic,400,400italic,600,600italic,700,700italic|Julius+Sans+One:400);</style></defs>





<path d="M 89.04530334472656 249.09173583984375 C 89.34530639648438 249.53839111328125 89.72196960449219 250.08506774902344 90.17530822753906 250.7317352294922 C 90.6219711303711 251.37840270996094 91.108642578125 252.07839965820312 91.63530731201172 252.83172607421875 C 92.16197204589844 253.58506774902344 92.70530700683594 254.3517303466797 93.26530456542969 255.13172912597656 C 93.82530975341797 255.91839599609375 94.36530303955078 256.675048828125 94.88530731201172 257.4017333984375 C 95.40530395507812 258.1283874511719 95.88197326660156 258.79840087890625 96.3153076171875 259.4117431640625 C 96.74864196777344 260.0184020996094 97.10197448730469 260.51171875 97.37530517578125 260.8917236328125 C 97.51530456542969 260.68505859375 97.77530670166016 260.3117370605469 98.15530395507812 259.771728515625 C 98.52864074707031 259.2250671386719 98.96864318847656 258.59173583984375 99.47530364990234 257.8717346191406 C 99.97530364990234 257.1517333984375 100.52197265625 256.3717346191406 101.11531066894531 255.53172302246094 C 101.7086410522461 254.6917266845703 102.28864288330078 253.86839294433594 102.85530853271484 253.06173706054688 C 103.4219741821289 252.25506591796875 103.9586410522461 251.50172424316406 104.4653091430664 250.80172729492188 C 104.9653091430664 250.1083984375 105.37530517578125 249.53839111328125 105.69530487060547 249.09173583984375 L 105.69530487060547 266.9917297363281 L 103.97530364990234 266.9917297363281 L 103.97530364990234 254.771728515625 C 103.97530364990234 254.63172912597656 103.98197174072266 254.4817352294922 103.99530792236328 254.3217315673828 C 104.00863647460938 254.16172790527344 104.01530456542969 254.0250701904297 104.01530456542969 253.91172790527344 C 103.74864196777344 254.29840087890625 103.42530822753906 254.75839233398438 103.04530334472656 255.29173278808594 C 102.6719741821289 255.82505798339844 102.27530670166016 256.3984069824219 101.85530853271484 257.01171875 C 101.44197082519531 257.618408203125 101.01863861083984 258.2384033203125 100.5853042602539 258.8717346191406 C 100.15196990966797 259.4983825683594 99.73530578613281 260.1083984375 99.3353042602539 260.70172119140625 C 98.935302734375 261.2950744628906 98.5653076171875 261.848388671875 98.22530364990234 262.3617248535156 C 97.8786392211914 262.87506103515625 97.59530639648438 263.29840087890625 97.37530517578125 263.6317443847656 C 97.14863586425781 263.3450622558594 96.84197235107422 262.9317321777344 96.45530700683594 262.3917236328125 C 96.07530212402344 261.8583984375 95.65530395507812 261.2583923339844 95.19530487060547 260.59173583984375 C 94.74197387695312 259.9317321777344 94.26863861083984 259.24505615234375 93.77530670166016 258.53173828125 C 93.27530670166016 257.8183898925781 92.8153076171875 257.1517333984375 92.39530944824219 256.53173828125 C 91.96864318847656 255.90505981445312 91.59197235107422 255.3550567626953 91.26530456542969 254.88172912597656 C 90.93863677978516 254.4084014892578 90.71864318847656 254.08506774902344 90.60530853271484 253.91172790527344 C 90.60530853271484 254.0250701904297 90.61530303955078 254.16172790527344 90.63530731201172 254.3217315673828 C 90.66197204589844 254.4817352294922 90.67530822753906 254.63172912597656 90.67530822753906 254.771728515625 L 90.67530822753906 266.9917297363281 L 89.04530334472656 266.9917297363281 L 89.04530334472656 249.09173583984375 ZM 121.65728759765625 266.9917297363281 C 121.33728790283203 266.2583923339844 120.96061706542969 265.3550720214844 120.52728271484375 264.28173828125 C 120.10061645507812 263.2084045410156 119.6539535522461 262.07171630859375 119.18728637695312 260.8717346191406 L 112.60728454589844 260.8717346191406 C 112.14728546142578 262.07171630859375 111.70062255859375 263.2084045410156 111.26728820800781 264.28173828125 C 110.83395385742188 265.3550720214844 110.45728302001953 266.2583923339844 110.13728332519531 266.9917297363281 L 108.50728607177734 266.9917297363281 C 108.74728393554688 266.41839599609375 109.0672836303711 265.6550598144531 109.46728515625 264.70172119140625 C 109.8672866821289 263.7483825683594 110.30062103271484 262.705078125 110.76728820800781 261.57171630859375 C 111.22728729248047 260.4317321777344 111.70728302001953 259.2517395019531 112.20728302001953 258.03173828125 C 112.70062255859375 256.8050537109375 113.18061828613281 255.62506103515625 113.64728546142578 254.49172973632812 C 114.10728454589844 253.3517303466797 114.53395080566406 252.31173706054688 114.92728424072266 251.37173461914062 C 115.32061767578125 250.42506408691406 115.64395141601562 249.65505981445312 115.89728546142578 249.06173706054688 C 116.13728332519531 249.65505981445312 116.45728302001953 250.42506408691406 116.85728454589844 251.37173461914062 C 117.25728607177734 252.31173706054688 117.69062042236328 253.3517303466797 118.15728759765625 254.49172973632812 C 118.6172866821289 255.62506103515625 119.10061645507812 256.8050537109375 119.60728454589844 258.03173828125 C 120.11395263671875 259.2517395019531 120.59728240966797 260.4317321777344 121.05728149414062 261.57171630859375 C 121.52395629882812 262.705078125 121.95394897460938 263.7483825683594 122.34728240966797 264.70172119140625 C 122.73395538330078 265.6550598144531 123.05728149414062 266.41839599609375 123.3172836303711 266.9917297363281 L 121.65728759765625 266.9917297363281 M 115.65728759765625 253.26173400878906 C 115.33728790283203 254.0150604248047 114.95728302001953 254.93505859375 114.51728820800781 256.021728515625 C 114.07728576660156 257.1083984375 113.62728881835938 258.2517395019531 113.16728210449219 259.45172119140625 L 118.63728332519531 259.45172119140625 C 118.15728759765625 258.2517395019531 117.70062255859375 257.1083984375 117.26728820800781 256.021728515625 C 116.83395385742188 254.93505859375 116.45728302001953 254.0150604248047 116.13728332519531 253.26173400878906 C 116.10395050048828 253.2017364501953 116.06394958496094 253.09506225585938 116.01728820800781 252.9417266845703 C 115.97061920166016 252.78839111328125 115.93061828613281 252.6483917236328 115.89728546142578 252.521728515625 C 115.86395263671875 252.6483917236328 115.8239517211914 252.78839111328125 115.77728271484375 252.9417266845703 C 115.73062133789062 253.09506225585938 115.69062042236328 253.2017364501953 115.65728759765625 253.26173400878906 ZM 126.10125732421875 266.9917297363281 L 126.10125732421875 249.8517303466797 L 130.2512664794922 249.8517303466797 C 130.9712677001953 249.8517303466797 131.6679229736328 249.95172119140625 132.3412628173828 250.1517333984375 C 133.01458740234375 250.3517303466797 133.61126708984375 250.66172790527344 134.13125610351562 251.08172607421875 C 134.65126037597656 251.49505615234375 135.06459045410156 252.0150604248047 135.3712615966797 252.6417236328125 C 135.68460083007812 253.26173400878906 135.8412628173828 254.00506591796875 135.8412628173828 254.87173461914062 C 135.8412628173828 255.83172607421875 135.6245880126953 256.74505615234375 135.19125366210938 257.6117248535156 C 134.76458740234375 258.47174072265625 134.05459594726562 259.13507080078125 133.06126403808594 259.6017150878906 C 133.20126342773438 259.84173583984375 133.39126586914062 260.1617431640625 133.63125610351562 260.5617370605469 C 133.8712615966797 260.96173095703125 134.13792419433594 261.3984069824219 134.43125915527344 261.8717346191406 C 134.71792602539062 262.3384094238281 135.01792907714844 262.8283996582031 135.33126831054688 263.34173583984375 C 135.63792419433594 263.8550720214844 135.93792724609375 264.3450622558594 136.23126220703125 264.8117370605469 C 136.51792907714844 265.271728515625 136.78126525878906 265.695068359375 137.02125549316406 266.08172607421875 C 137.26126098632812 266.46173095703125 137.45126342773438 266.76507568359375 137.5912628173828 266.9917297363281 L 135.60125732421875 266.9917297363281 C 135.47459411621094 266.79840087890625 135.30792236328125 266.5350646972656 135.10125732421875 266.20172119140625 C 134.89459228515625 265.8617248535156 134.6612548828125 265.4850769042969 134.40126037597656 265.07171630859375 C 134.14793395996094 264.65838623046875 133.8779296875 264.2183837890625 133.5912628173828 263.7517395019531 C 133.2979278564453 263.2850646972656 133.01792907714844 262.8283996582031 132.7512664794922 262.3817443847656 C 132.47792053222656 261.93505859375 132.21792602539062 261.51171875 131.97125244140625 261.1117248535156 C 131.71792602539062 260.71173095703125 131.5045928955078 260.368408203125 131.3312530517578 260.08172607421875 C 131.1712646484375 260.11505126953125 131.0045928955078 260.1317443847656 130.8312530517578 260.1317443847656 C 130.65126037597656 260.1317443847656 130.47459411621094 260.1317443847656 130.30125427246094 260.1317443847656 L 127.73126220703125 260.1317443847656 L 127.73126220703125 266.9917297363281 L 126.10125732421875 266.9917297363281 M 127.73126220703125 258.57171630859375 L 130.27125549316406 258.57171630859375 C 131.04458618164062 258.57171630859375 131.68460083007812 258.4417419433594 132.19125366210938 258.1817321777344 C 132.70458984375 257.92840576171875 133.11126708984375 257.6117248535156 133.4112548828125 257.2317199707031 C 133.70458984375 256.8583984375 133.9112548828125 256.4584045410156 134.03126525878906 256.03173828125 C 134.15126037597656 255.61172485351562 134.2112579345703 255.22506713867188 134.2112579345703 254.87173461914062 C 134.2112579345703 254.4384002685547 134.1279296875 254.0150604248047 133.9612579345703 253.6017303466797 C 133.79458618164062 253.18173217773438 133.55125427246094 252.8083953857422 133.23126220703125 252.4817352294922 C 132.9112548828125 252.15505981445312 132.5012664794922 251.8917236328125 132.0012664794922 251.6917266845703 C 131.5079345703125 251.49172973632812 130.94125366210938 251.3917236328125 130.30125427246094 251.3917236328125 L 127.73126220703125 251.3917236328125 L 127.73126220703125 258.57171630859375 ZM 140.5732421875 249.8517303466797 L 142.22325134277344 249.8517303466797 L 142.22325134277344 266.9917297363281 L 140.5732421875 266.9917297363281 L 140.5732421875 249.8517303466797 ZM 148.77523803710938 258.57171630859375 L 151.32522583007812 258.57171630859375 C 152.09190368652344 258.57171630859375 152.73190307617188 258.445068359375 153.2452392578125 258.1917419433594 C 153.75856018066406 257.945068359375 154.16189575195312 257.63507080078125 154.45523071289062 257.26171875 C 154.74856567382812 256.8817443847656 154.95523071289062 256.4817199707031 155.07522583007812 256.0617370605469 C 155.1952362060547 255.63507080078125 155.25523376464844 255.24505615234375 155.25523376464844 254.8917236328125 C 155.25523376464844 254.46505737304688 155.17190551757812 254.03839111328125 155.00523376464844 253.61172485351562 C 154.83856201171875 253.18505859375 154.59523010253906 252.8083953857422 154.27523803710938 252.4817352294922 C 153.95523071289062 252.15505981445312 153.54856872558594 251.8917236328125 153.05523681640625 251.6917266845703 C 152.55523681640625 251.49172973632812 151.9852294921875 251.3917236328125 151.34523010253906 251.3917236328125 L 148.77523803710938 251.3917236328125 L 148.77523803710938 258.57171630859375 M 147.14523315429688 266.9917297363281 L 147.14523315429688 249.8517303466797 L 151.29522705078125 249.8517303466797 C 152.01522827148438 249.8517303466797 152.71189880371094 249.95172119140625 153.38523864746094 250.1517333984375 C 154.05856323242188 250.3517303466797 154.6552276611328 250.66172790527344 155.17523193359375 251.08172607421875 C 155.6952362060547 251.49505615234375 156.1118927001953 252.0150604248047 156.42523193359375 252.6417236328125 C 156.7385711669922 253.26173400878906 156.89523315429688 254.00506591796875 156.89523315429688 254.87173461914062 C 156.89523315429688 255.5250701904297 156.78855895996094 256.16839599609375 156.57522583007812 256.8017272949219 C 156.36856079101562 257.43505859375 156.04522705078125 257.99505615234375 155.605224609375 258.4817199707031 C 155.1652374267578 258.9683837890625 154.59523010253906 259.36505126953125 153.89523315429688 259.6717224121094 C 153.18856811523438 259.9783935546875 152.33856201171875 260.1317443847656 151.34523010253906 260.1317443847656 L 148.77523803710938 260.1317443847656 L 148.77523803710938 266.9917297363281 L 147.14523315429688 266.9917297363281 ZM 160.34921264648438 266.9917297363281 L 160.34921264648438 249.8517303466797 L 164.4992218017578 249.8517303466797 C 165.21922302246094 249.8517303466797 165.91587829589844 249.95172119140625 166.58921813964844 250.1517333984375 C 167.26254272460938 250.3517303466797 167.85922241210938 250.66172790527344 168.37921142578125 251.08172607421875 C 168.8992156982422 251.49505615234375 169.3125457763672 252.0150604248047 169.6192169189453 252.6417236328125 C 169.93255615234375 253.26173400878906 170.08921813964844 254.00506591796875 170.08921813964844 254.87173461914062 C 170.08921813964844 255.83172607421875 169.87254333496094 256.74505615234375 169.439208984375 257.6117248535156 C 169.01254272460938 258.47174072265625 168.30255126953125 259.13507080078125 167.30921936035156 259.6017150878906 C 167.44921875 259.84173583984375 167.63922119140625 260.1617431640625 167.87921142578125 260.5617370605469 C 168.1192169189453 260.96173095703125 168.38587951660156 261.3984069824219 168.67921447753906 261.8717346191406 C 168.96588134765625 262.3384094238281 169.26588439941406 262.8283996582031 169.5792236328125 263.34173583984375 C 169.88587951660156 263.8550720214844 170.18588256835938 264.3450622558594 170.47921752929688 264.8117370605469 C 170.76588439941406 265.271728515625 171.0292205810547 265.695068359375 171.2692108154297 266.08172607421875 C 171.50921630859375 266.46173095703125 171.69921875 266.76507568359375 171.83921813964844 266.9917297363281 L 169.84921264648438 266.9917297363281 C 169.72254943847656 266.79840087890625 169.55587768554688 266.5350646972656 169.34921264648438 266.20172119140625 C 169.14254760742188 265.8617248535156 168.90921020507812 265.4850769042969 168.6492156982422 265.07171630859375 C 168.39588928222656 264.65838623046875 168.12588500976562 264.2183837890625 167.83921813964844 263.7517395019531 C 167.54588317871094 263.2850646972656 167.26588439941406 262.8283996582031 166.9992218017578 262.3817443847656 C 166.7258758544922 261.93505859375 166.46588134765625 261.51171875 166.21920776367188 261.1117248535156 C 165.96588134765625 260.71173095703125 165.75254821777344 260.368408203125 165.57920837402344 260.08172607421875 C 165.41921997070312 260.11505126953125 165.25254821777344 260.1317443847656 165.07920837402344 260.1317443847656 C 164.8992156982422 260.1317443847656 164.72254943847656 260.1317443847656 164.54920959472656 260.1317443847656 L 161.97921752929688 260.1317443847656 L 161.97921752929688 266.9917297363281 L 160.34921264648438 266.9917297363281 M 161.97921752929688 258.57171630859375 L 164.5192108154297 258.57171630859375 C 165.29254150390625 258.57171630859375 165.93255615234375 258.4417419433594 166.439208984375 258.1817321777344 C 166.95254516601562 257.92840576171875 167.35922241210938 257.6117248535156 167.65921020507812 257.2317199707031 C 167.95254516601562 256.8583984375 168.15921020507812 256.4584045410156 168.2792205810547 256.03173828125 C 168.3992156982422 255.61172485351562 168.45921325683594 255.22506713867188 168.45921325683594 254.87173461914062 C 168.45921325683594 254.4384002685547 168.37588500976562 254.0150604248047 168.20921325683594 253.6017303466797 C 168.04254150390625 253.18173217773438 167.79920959472656 252.8083953857422 167.47921752929688 252.4817352294922 C 167.15921020507812 252.15505981445312 166.7492218017578 251.8917236328125 166.2492218017578 251.6917266845703 C 165.75588989257812 251.49172973632812 165.189208984375 251.3917236328125 164.54920959472656 251.3917236328125 L 161.97921752929688 251.3917236328125 L 161.97921752929688 258.57171630859375 ZM 173.31118774414062 258.45172119140625 C 173.31118774414062 257.2517395019531 173.53785705566406 256.118408203125 173.99119567871094 255.05172729492188 C 174.4445343017578 253.9850616455078 175.06785583496094 253.05172729492188 175.86119079589844 252.25172424316406 C 176.65452575683594 251.4517364501953 177.58453369140625 250.8217315673828 178.6511993408203 250.36172485351562 C 179.71119689941406 249.8950653076172 180.84120178222656 249.66172790527344 182.04119873046875 249.66172790527344 C 183.24119567871094 249.66172790527344 184.37786865234375 249.8950653076172 185.45120239257812 250.36172485351562 C 186.5245361328125 250.8217315673828 187.45785522460938 251.4517364501953 188.25119018554688 252.25172424316406 C 189.03785705566406 253.05172729492188 189.66452026367188 253.9850616455078 190.13119506835938 255.05172729492188 C 190.59786987304688 256.118408203125 190.83119201660156 257.2517395019531 190.83119201660156 258.45172119140625 C 190.83119201660156 259.6517333984375 190.59786987304688 260.78173828125 190.13119506835938 261.84173583984375 C 189.66452026367188 262.90838623046875 189.03785705566406 263.8384094238281 188.25119018554688 264.6317443847656 C 187.45785522460938 265.41839599609375 186.5245361328125 266.0417175292969 185.45120239257812 266.5017395019531 C 184.37786865234375 266.955078125 183.24119567871094 267.1817321777344 182.04119873046875 267.1817321777344 C 180.84120178222656 267.1817321777344 179.71119689941406 266.955078125 178.6511993408203 266.5017395019531 C 177.58453369140625 266.0417175292969 176.65452575683594 265.41839599609375 175.86119079589844 264.6317443847656 C 175.06785583496094 263.8384094238281 174.4445343017578 262.90838623046875 173.99119567871094 261.84173583984375 C 173.53785705566406 260.78173828125 173.31118774414062 259.6517333984375 173.31118774414062 258.45172119140625 M 174.94119262695312 258.45172119140625 C 174.94119262695312 259.4383850097656 175.12786865234375 260.368408203125 175.50119018554688 261.2417297363281 C 175.88119506835938 262.11505126953125 176.3911895751953 262.87506103515625 177.03118896484375 263.521728515625 C 177.6711883544922 264.16839599609375 178.4211883544922 264.6817321777344 179.28118896484375 265.0617370605469 C 180.14785766601562 265.43505859375 181.06785583496094 265.6217346191406 182.04119873046875 265.6217346191406 C 183.0211944580078 265.6217346191406 183.9445343017578 265.43505859375 184.81118774414062 265.0617370605469 C 185.6845245361328 264.6817321777344 186.4445343017578 264.16839599609375 187.09120178222656 263.521728515625 C 187.74452209472656 262.87506103515625 188.2578582763672 262.11505126953125 188.63119506835938 261.2417297363281 C 189.00453186035156 260.368408203125 189.19119262695312 259.4383850097656 189.19119262695312 258.45172119140625 C 189.19119262695312 257.4584045410156 189.00453186035156 256.5250549316406 188.63119506835938 255.6517333984375 C 188.2578582763672 254.7783966064453 187.74452209472656 254.0150604248047 187.09120178222656 253.36172485351562 C 186.4445343017578 252.7017364501953 185.6845245361328 252.18505859375 184.81118774414062 251.81173706054688 C 183.9445343017578 251.4384002685547 183.0211944580078 251.25172424316406 182.04119873046875 251.25172424316406 C 181.04786682128906 251.25172424316406 180.12452697753906 251.4384002685547 179.2711944580078 251.81173706054688 C 178.41786193847656 252.18505859375 177.66453552246094 252.7017364501953 177.01119995117188 253.36172485351562 C 176.36453247070312 254.0150604248047 175.8578643798828 254.7783966064453 175.49119567871094 255.6517333984375 C 175.12452697753906 256.5250549316406 174.94119262695312 257.4584045410156 174.94119262695312 258.45172119140625 Z" transform="matrix(3.5251946449279785, 0, 0, 3.5251946449279785, -138.69094848632812, -859.9107666015625)" style="fill: rgb(255, 255, 255); white-space: pre; color: rgb(51, 51, 51);"/><path d="M 343.7485046386719 262.7939758300781 L 341.27850341796875 268.7439880371094 L 340.04852294921875 268.7439880371094 L 347.27850341796875 251.4639892578125 L 347.9485168457031 251.4639892578125 L 355.1985168457031 268.7439880371094 L 353.8985290527344 268.7439880371094 L 351.42852783203125 262.7939758300781 L 343.7485046386719 262.7939758300781 M 347.53851318359375 253.3839874267578 C 347.5251770019531 253.39732360839844 347.49517822265625 253.49398803710938 347.4485168457031 253.67398071289062 C 347.22186279296875 254.36065673828125 347.00518798828125 254.94398498535156 346.79852294921875 255.42398071289062 L 344.15850830078125 261.8039855957031 L 351.0185241699219 261.8039855957031 L 348.3785095214844 255.44398498535156 C 347.8185119628906 254.23065185546875 347.53851318359375 253.5439910888672 347.53851318359375 253.3839874267578 ZM 369.2783203125 268.9839782714844 C 367.0516662597656 268.9839782714844 365.1883239746094 268.20733642578125 363.6883239746094 266.65399169921875 C 362.1816711425781 265.10064697265625 361.4283447265625 263.2006530761719 361.4283447265625 260.9539794921875 C 361.4283447265625 258.70733642578125 362.1816711425781 256.80731201171875 363.6883239746094 255.2539825439453 C 365.1883239746094 253.70065307617188 367.0516662597656 252.92398071289062 369.2783203125 252.92398071289062 C 371.4983215332031 252.92398071289062 373.35833740234375 253.70065307617188 374.85833740234375 255.2539825439453 C 376.3516540527344 256.80731201171875 377.09832763671875 258.7039794921875 377.09832763671875 260.9440002441406 C 377.09832763671875 262.2706604003906 376.8183288574219 263.5039978027344 376.2583312988281 264.64398193359375 C 375.6983337402344 265.7773132324219 374.9316711425781 266.7106628417969 373.9583435058594 267.4440002441406 C 377.7649841308594 269.7039794921875 380.691650390625 271.0639953613281 382.73834228515625 271.52398681640625 C 383.79833984375 271.78399658203125 384.81500244140625 271.91400146484375 385.788330078125 271.91400146484375 C 386.76165771484375 271.91400146484375 387.81500244140625 271.8006591796875 388.9483337402344 271.573974609375 C 390.07501220703125 271.3539733886719 390.8783264160156 271.1239929199219 391.35833740234375 270.8840026855469 L 391.61834716796875 271.5039978027344 C 391.01165771484375 271.7906494140625 390.1283264160156 272.073974609375 388.96832275390625 272.3539733886719 C 387.8083190917969 272.6340026855469 386.7216796875 272.77398681640625 385.7083435058594 272.77398681640625 C 384.6883239746094 272.77398681640625 383.6016540527344 272.64398193359375 382.4483337402344 272.3840026855469 C 381.3016662597656 272.1173095703125 380.1016540527344 271.69732666015625 378.84832763671875 271.1239929199219 C 377.6016540527344 270.5439758300781 376.6383361816406 270.073974609375 375.9583435058594 269.7139892578125 C 375.2783203125 269.3539733886719 374.29833984375 268.7973327636719 373.0183410644531 268.0439758300781 C 371.864990234375 268.670654296875 370.6183166503906 268.9839782714844 369.2783203125 268.9839782714844 M 369.2683410644531 253.9139862060547 C 369.2683410644531 253.9139862060547 368.7850036621094 253.9139862060547 367.8183288574219 253.9139862060547 C 366.8516540527344 253.9139862060547 365.73834228515625 254.593994140625 364.47833251953125 255.95399475097656 C 363.211669921875 257.3139953613281 362.5783386230469 258.98065185546875 362.5783386230469 260.9539794921875 C 362.5783386230469 262.9339904785156 363.211669921875 264.5973205566406 364.47833251953125 265.9440002441406 C 365.73834228515625 267.2973327636719 367.33831787109375 267.9739990234375 369.2783203125 267.9739990234375 C 370.2850036621094 267.9739990234375 371.19500732421875 267.78399658203125 372.0083312988281 267.40399169921875 C 370.20166015625 266.1839904785156 368.79498291015625 265.573974609375 367.788330078125 265.573974609375 C 367.2149963378906 265.573974609375 366.6883239746094 265.68731689453125 366.2083435058594 265.91400146484375 L 365.84832763671875 265.2439880371094 C 366.3883361816406 264.8906555175781 366.9949951171875 264.7139892578125 367.6683349609375 264.7139892578125 C 368.3416748046875 264.7139892578125 368.9983215332031 264.833984375 369.6383361816406 265.073974609375 C 370.2783203125 265.3139953613281 370.8183288574219 265.5606689453125 371.2583312988281 265.8139953613281 C 371.6983337402344 266.073974609375 372.2683410644531 266.4339904785156 372.96832275390625 266.89398193359375 C 373.90167236328125 266.27398681640625 374.635009765625 265.43731689453125 375.1683349609375 264.3840026855469 C 375.70166015625 263.3373107910156 375.96832275390625 262.1906433105469 375.96832275390625 260.9440002441406 C 375.96832275390625 258.9773254394531 375.3349914550781 257.3139953613281 374.0683288574219 255.95399475097656 C 372.79498291015625 254.593994140625 371.19500732421875 253.9139862060547 369.2683410644531 253.9139862060547 ZM 397.2057800292969 267.1340026855469 C 397.2057800292969 267.1340026855469 396.94244384765625 267.4440002441406 396.415771484375 268.0639953613281 C 395.8824462890625 268.67730712890625 394.5357666015625 268.9839782714844 392.37579345703125 268.9839782714844 C 390.2157897949219 268.9839782714844 388.6091003417969 268.3673095703125 387.5557861328125 267.1340026855469 C 386.50244140625 265.9006652832031 385.97576904296875 264.19732666015625 385.97576904296875 262.02398681640625 L 385.97576904296875 253.1639862060547 L 387.0757751464844 253.1639862060547 L 387.0757751464844 262.02398681640625 C 387.0757751464844 266.0106506347656 388.8424377441406 268.0039978027344 392.37579345703125 268.0039978027344 C 395.915771484375 268.0039978027344 397.685791015625 266.0106506347656 397.685791015625 262.02398681640625 L 397.685791015625 253.1639862060547 L 398.7857666015625 253.1639862060547 L 398.7857666015625 262.02398681640625 C 398.7857666015625 264.19732666015625 398.2591247558594 265.9006652832031 397.2057800292969 267.1340026855469 ZM 409.14935302734375 263.343994140625 L 406.91937255859375 268.7439880371094 L 405.78936767578125 268.7439880371094 L 412.3193664550781 253.07398986816406 L 412.9593505859375 253.07398986816406 L 419.53936767578125 268.7439880371094 L 418.3193664550781 268.7439880371094 L 416.0593566894531 263.343994140625 L 409.14935302734375 263.343994140625 M 412.579345703125 254.843994140625 C 412.33935546875 255.56399536132812 412.1226806640625 256.16400146484375 411.9293518066406 256.64398193359375 L 409.52935791015625 262.40399169921875 L 415.6793518066406 262.40399169921875 L 413.2993469238281 256.6739807128906 C 412.93267822265625 255.77398681640625 412.69268798828125 255.1639862060547 412.579345703125 254.843994140625 ZM 438.7553405761719 267.9739990234375 C 437.5553283691406 268.6473083496094 435.888671875 268.9839782714844 433.7553405761719 268.9839782714844 C 431.6153259277344 268.9839782714844 429.7353515625 268.2173156738281 428.1153259277344 266.6839904785156 C 426.4886779785156 265.14398193359375 425.67535400390625 263.2339782714844 425.67535400390625 260.9539794921875 C 425.67535400390625 258.6739807128906 426.38201904296875 256.767333984375 427.79534912109375 255.23399353027344 C 429.21533203125 253.69398498535156 431.04534912109375 252.92398071289062 433.28533935546875 252.92398071289062 C 435.0920104980469 252.92398071289062 436.8586730957031 253.20399475097656 438.5853271484375 253.7639923095703 L 438.29534912109375 254.68399047851562 C 436.6353454589844 254.170654296875 434.91534423828125 253.9139862060547 433.1353454589844 253.9139862060547 C 431.36199951171875 253.9139862060547 429.87200927734375 254.5906524658203 428.66534423828125 255.94398498535156 C 427.45867919921875 257.2906494140625 426.8553466796875 258.9440002441406 426.8553466796875 260.90399169921875 C 426.8553466796875 262.8639831542969 427.5553283691406 264.53399658203125 428.9553527832031 265.91400146484375 C 430.3553466796875 267.2873229980469 431.975341796875 267.9739990234375 433.8153381347656 267.9739990234375 C 435.65533447265625 267.9739990234375 437.1820068359375 267.7173156738281 438.3953552246094 267.2039794921875 L 438.7553405761719 267.9739990234375 ZM 457.99713134765625 267.1340026855469 C 457.99713134765625 267.1340026855469 457.7337951660156 267.4440002441406 457.2071228027344 268.0639953613281 C 456.6737976074219 268.67730712890625 455.3271179199219 268.9839782714844 453.1671447753906 268.9839782714844 C 451.00714111328125 268.9839782714844 449.40045166015625 268.3673095703125 448.3471374511719 267.1340026855469 C 447.2937927246094 265.9006652832031 446.7671203613281 264.19732666015625 446.7671203613281 262.02398681640625 L 446.7671203613281 253.1639862060547 L 447.86712646484375 253.1639862060547 L 447.86712646484375 262.02398681640625 C 447.86712646484375 266.0106506347656 449.6337890625 268.0039978027344 453.1671447753906 268.0039978027344 C 456.7071228027344 268.0039978027344 458.4771423339844 266.0106506347656 458.4771423339844 262.02398681640625 L 458.4771423339844 253.1639862060547 L 459.5771179199219 253.1639862060547 L 459.5771179199219 262.02398681640625 C 459.5771179199219 264.19732666015625 459.05047607421875 265.9006652832031 457.99713134765625 267.1340026855469 ZM 469.41070556640625 268.7439880371094 L 469.41070556640625 253.1639862060547 L 470.5107116699219 253.1639862060547 L 470.5107116699219 267.7339782714844 L 477.67071533203125 267.7339782714844 L 477.67071533203125 268.7439880371094 L 469.41070556640625 268.7439880371094 ZM 485.6951904296875 254.15399169921875 L 480.4151916503906 254.15399169921875 L 480.4151916503906 253.1639862060547 L 492.05517578125 253.1639862060547 L 492.05517578125 254.15399169921875 L 486.7751770019531 254.15399169921875 L 486.7751770019531 268.7439880371094 L 485.6951904296875 268.7439880371094 L 485.6951904296875 254.15399169921875 ZM 510.6293640136719 267.1340026855469 C 510.6293640136719 267.1340026855469 510.36602783203125 267.4440002441406 509.83935546875 268.0639953613281 C 509.3060302734375 268.67730712890625 507.9593505859375 268.9839782714844 505.79937744140625 268.9839782714844 C 503.6393737792969 268.9839782714844 502.0326843261719 268.3673095703125 500.9793701171875 267.1340026855469 C 499.926025390625 265.9006652832031 499.39935302734375 264.19732666015625 499.39935302734375 262.02398681640625 L 499.39935302734375 253.1639862060547 L 500.4993591308594 253.1639862060547 L 500.4993591308594 262.02398681640625 C 500.4993591308594 266.0106506347656 502.2660217285156 268.0039978027344 505.79937744140625 268.0039978027344 C 509.33935546875 268.0039978027344 511.109375 266.0106506347656 511.109375 262.02398681640625 L 511.109375 253.1639862060547 L 512.2093505859375 253.1639862060547 L 512.2093505859375 262.02398681640625 C 512.2093505859375 264.19732666015625 511.6827087402344 265.9006652832031 510.6293640136719 267.1340026855469 ZM 522.0429077148438 268.7439880371094 L 522.0429077148438 253.24398803710938 C 523.416259765625 253.1306610107422 524.5828857421875 253.07398986816406 525.5429077148438 253.07398986816406 C 527.0162353515625 253.07398986816406 528.23291015625 253.45399475097656 529.1929321289062 254.2139892578125 C 530.1528930664062 254.97398376464844 530.6328735351562 256.05731201171875 530.6328735351562 257.4639892578125 C 530.6328735351562 258.41064453125 530.3629150390625 259.28399658203125 529.8228759765625 260.083984375 C 529.2762451171875 260.8840026855469 528.6595458984375 261.5306396484375 527.972900390625 262.02398681640625 C 529.8729248046875 264.5506591796875 531.049560546875 266.0639953613281 531.5029296875 266.5639953613281 C 532.4095458984375 267.5039978027344 533.3995971679688 268.0373229980469 534.472900390625 268.16400146484375 L 534.452880859375 268.91400146484375 C 533.5529174804688 268.89398193359375 532.8228759765625 268.7606506347656 532.2628784179688 268.51397705078125 C 531.702880859375 268.267333984375 531.1495971679688 267.8473205566406 530.6029052734375 267.2539978027344 C 530.049560546875 266.66064453125 528.8362426757812 265.0706481933594 526.962890625 262.4839782714844 C 525.6695556640625 262.4839782714844 524.396240234375 262.4440002441406 523.1428833007812 262.3639831542969 L 523.1428833007812 268.7439880371094 L 522.0429077148438 268.7439880371094 M 526.3629150390625 261.5639953613281 C 526.9895629882812 261.5639953613281 527.6629028320312 261.1506652832031 528.3828735351562 260.323974609375 C 529.1029052734375 259.49066162109375 529.462890625 258.5206604003906 529.462890625 257.41400146484375 C 529.462890625 256.3139953613281 529.0862426757812 255.47398376464844 528.3328857421875 254.89398193359375 C 527.57958984375 254.32064819335938 526.6029052734375 254.0339813232422 525.4028930664062 254.0339813232422 C 524.7628784179688 254.0339813232422 524.0095825195312 254.06399536132812 523.1428833007812 254.12399291992188 L 523.1428833007812 261.4440002441406 C 524.2962646484375 261.52398681640625 525.3695678710938 261.5639953613281 526.3629150390625 261.5639953613281 ZM 540.850830078125 268.7439880371094 L 540.850830078125 253.1639862060547 L 548.120849609375 253.1639862060547 L 548.120849609375 254.12399291992188 L 541.9508056640625 254.12399291992188 L 541.9508056640625 259.7939758300781 L 547.5208129882812 259.7939758300781 L 547.5208129882812 260.7239990234375 L 541.9508056640625 260.7239990234375 L 541.9508056640625 267.7339782714844 L 548.36083984375 267.7339782714844 L 548.36083984375 268.7439880371094 L 540.850830078125 268.7439880371094 Z" transform="matrix(1.185552716255188, 0, 0, 1.185552716255188, -226.05291748046875, -203.93849182128906)" style="fill: rgb(255, 255, 255); white-space: pre; color: rgb(51, 51, 51);"/><g transform="matrix(1.3824172019958496, 0, 0, 1.3824172019958496, -831.0321235656738, -278.0019283294678)"><g transform="matrix(1, 0, 0, 1, -4.871124744415255, -7.915577888488777)"><path id="path-6" class="st3" d="M720,232.7c-6.9,0-10.5-2.5-13.5-4.5c-2.4-1.7-4.2-2.8-8.2-2.8c-4,0-5.7,1.2-8.2,2.8&#10;&#9;&#9;&#9;c-3,2-6.6,4.5-13.5,4.5c-6.9,0-10.5-2.5-13.5-4.5c-2.4-1.7-4.2-2.8-8.2-2.8c-4,0-5.7,1.2-8.2,2.8c-3,2-6.6,4.5-13.5,4.5&#10;&#9;&#9;&#9;c-6.9,0-10.5-2.5-13.5-4.5c-2.4-1.7-4.2-2.8-8.2-2.8v-9.5c6.9,0,10.5,2.5,13.5,4.5c2.4,1.7,4.2,2.8,8.2,2.8c4,0,5.7-1.2,8.2-2.8&#10;&#9;&#9;&#9;c3-2,6.6-4.5,13.5-4.5c6.9,0,10.5,2.5,13.5,4.5c2.4,1.7,4.2,2.8,8.2,2.8c4,0,5.7-1.2,8.2-2.8c3-2,6.6-4.5,13.5-4.5&#10;&#9;&#9;&#9;c6.9,0,10.5,2.5,13.5,4.5c2.4,1.7,4.2,2.8,8.2,2.8V232.7z" style="fill: rgb(255, 255, 255); opacity: 1;" transform="matrix(1, 0, 0, 1, 8.526512829121202e-14, -7.105427357601002e-15)"/><path id="path-7" class="st1" d="M720,248.3c-6.9,0-10.5-2.5-13.5-4.5c-2.4-1.7-4.2-2.8-8.2-2.8c-4,0-5.7,1.2-8.2,2.8&#10;&#9;&#9;&#9;c-3,2-6.6,4.5-13.5,4.5c-6.9,0-10.5-2.5-13.5-4.5c-2.4-1.7-4.2-2.8-8.2-2.8c-4,0-5.7,1.2-8.2,2.8c-3,2-6.6,4.5-13.5,4.5&#10;&#9;&#9;&#9;c-6.9,0-10.5-2.5-13.5-4.5c-2.4-1.7-4.2-2.8-8.2-2.8v-9.5c6.9,0,10.5,2.5,13.5,4.5c2.4,1.7,4.2,2.8,8.2,2.8c4,0,5.7-1.2,8.2-2.8&#10;&#9;&#9;&#9;c3-2,6.6-4.5,13.5-4.5c6.9,0,10.5,2.5,13.5,4.5c2.4,1.7,4.2,2.8,8.2,2.8c4,0,5.7-1.2,8.2-2.8c3-2,6.6-4.5,13.5-4.5&#10;&#9;&#9;&#9;c6.9,0,10.5,2.5,13.5,4.5c2.4,1.7,4.2,2.8,8.2,2.8V248.3z" style="fill: rgb(255, 255, 255); opacity: 1;" transform="matrix(1, 0, 0, 1, 8.526512829121202e-14, -7.105427357601002e-15)"/><path id="path-8" class="st4" d="M720,263.9c-6.9,0-10.5-2.5-13.5-4.5c-2.4-1.7-4.2-2.8-8.2-2.8c-4,0-5.7,1.2-8.2,2.8&#10;&#9;&#9;&#9;c-3,2-6.6,4.5-13.5,4.5c-6.9,0-10.5-2.5-13.5-4.5c-2.4-1.7-4.2-2.8-8.2-2.8c-4,0-5.7,1.2-8.2,2.8c-3,2-6.6,4.5-13.5,4.5&#10;&#9;&#9;&#9;c-6.9,0-10.5-2.5-13.5-4.5c-2.4-1.7-4.2-2.8-8.2-2.8v-9.5c6.9,0,10.5,2.5,13.5,4.5c2.4,1.7,4.2,2.8,8.2,2.8c4,0,5.7-1.2,8.2-2.8&#10;&#9;&#9;&#9;c3-2,6.6-4.5,13.5-4.5c6.9,0,10.5,2.5,13.5,4.5c2.4,1.7,4.2,2.8,8.2,2.8c4,0,5.7-1.2,8.2-2.8c3-2,6.6-4.5,13.5-4.5&#10;&#9;&#9;&#9;c6.9,0,10.5,2.5,13.5,4.5c2.4,1.7,4.2,2.8,8.2,2.8V263.9z" style="fill: rgb(255, 255, 255); opacity: 1;" transform="matrix(1, 0, 0, 1, 8.526512829121202e-14, -7.105427357601002e-15)"/><path id="path-9" class="st1" d="M720,279.5c-6.9,0-10.5-2.5-13.5-4.5c-2.4-1.7-4.2-2.8-8.2-2.8c-4,0-5.7,1.2-8.2,2.8&#10;&#9;&#9;&#9;c-3,2-6.6,4.5-13.5,4.5c-6.9,0-10.5-2.5-13.5-4.5c-2.4-1.7-4.2-2.8-8.2-2.8c-4,0-5.7,1.2-8.2,2.8c-3,2-6.6,4.5-13.5,4.5&#10;&#9;&#9;&#9;c-6.9,0-10.5-2.5-13.5-4.5c-2.4-1.7-4.2-2.8-8.2-2.8v-9.5c6.9,0,10.5,2.5,13.5,4.5c2.4,1.7,4.2,2.8,8.2,2.8c4,0,5.7-1.2,8.2-2.8&#10;&#9;&#9;&#9;c3-2,6.6-4.5,13.5-4.5c6.9,0,10.5,2.5,13.5,4.5c2.4,1.7,4.2,2.8,8.2,2.8c4,0,5.7-1.2,8.2-2.8c3-2,6.6-4.5,13.5-4.5&#10;&#9;&#9;&#9;c6.9,0,10.5,2.5,13.5,4.5c2.4,1.7,4.2,2.8,8.2,2.8V279.5z" style="fill: rgb(255, 255, 255); opacity: 1;" transform="matrix(1, 0, 0, 1, 8.526512829121202e-14, -7.105427357601002e-15)"/><path id="path-10" class="st5" d="M720,295.1c-6.9,0-10.5-2.5-13.5-4.5c-2.4-1.7-4.2-2.8-8.2-2.8c-4,0-5.7,1.2-8.2,2.8&#10;&#9;&#9;&#9;&#9;c-3,2-6.6,4.5-13.5,4.5c-6.9,0-10.5-2.5-13.5-4.5c-2.4-1.7-4.2-2.8-8.2-2.8c-4,0-5.7,1.2-8.2,2.8c-3,2-6.6,4.5-13.5,4.5&#10;&#9;&#9;&#9;&#9;c-6.9,0-10.5-2.5-13.5-4.5c-2.4-1.7-4.2-2.8-8.2-2.8v-9.5c6.9,0,10.5,2.5,13.5,4.5c2.4,1.7,4.2,2.8,8.2,2.8c4,0,5.7-1.2,8.2-2.8&#10;&#9;&#9;&#9;&#9;c3-2,6.6-4.5,13.5-4.5c6.9,0,10.5,2.5,13.5,4.5c2.4,1.7,4.2,2.8,8.2,2.8c4,0,5.7-1.2,8.2-2.8c3-2,6.6-4.5,13.5-4.5&#10;&#9;&#9;&#9;&#9;c6.9,0,10.5,2.5,13.5,4.5c2.4,1.7,4.2,2.8,8.2,2.8V295.1z" style="fill: rgb(255, 255, 255); opacity: 1;" transform="matrix(1, 0, 0, 1, 1.1368683772161603e-13, -7.105427357601002e-15)"/></g></g></svg>